<?xml version="1.0" encoding="utf-8"?>
<!-- Generator: Adobe Illustrator 23.0.2, SVG Export Plug-In . SVG Version: 6.00 Build 0)  -->
<svg version="1.1" id="Capa_1" xmlns="http://www.w3.org/2000/svg" xmlns:xlink="http://www.w3.org/1999/xlink" x="0px" y="0px"
	 viewBox="0 0 400 400" style="enable-background:new 0 0 400 400;" xml:space="preserve">
<style type="text/css">
	.st0{fill:#FEF9F4;}
	.st1{fill:#FF8C3D;}
	.st2{fill:#C42100;}
	.st3{fill:#F7A275;}
	.st4{fill:#FD8D3B;}
	.st5{fill:#F1A272;}
	.st6{fill:#F6A174;}
	.st7{fill:#F2A372;}
	.st8{fill:#C32100;}
	.st9{fill:#FFFFFF;}
	.st10{fill:#F6A277;}
	.st11{fill:#DEDFE6;}
	.st12{fill:#DCD0C8;}
	.st13{fill:#B8B9BC;}
	.st14{fill:#C6BBB5;}
	.st15{fill:#CBCCD1;}
	.st16{fill:#FB5802;}
	.st17{fill:#454971;}
	.st18{fill:#221D21;}
	.st19{fill:#373435;}
	.st20{fill:#FAAFA5;}
	.st21{fill:#FBAF9B;}
	.st22{fill:#231F1F;}
	.st23{fill:#F6B19F;}
	.st24{fill:#363957;}
	.st25{fill:#231F21;}
	.st26{fill:#5D5955;}
	.st27{fill:#F4F6FF;}
	.st28{fill:#FE5900;}
	.st29{fill:#F0F2F2;}
	.st30{fill:#E0E0E0;}
	.st31{fill:#545554;}
	.st32{fill:#D73D3D;}
	.st33{fill:#414242;}
	.st34{fill:#C63735;}
	.st35{fill:#89A5C0;}
	.st36{fill:#F8A722;}
	.st37{fill:#F8BF2C;}
	.st38{opacity:0.14;fill:#FFFFFF;enable-background:new    ;}
</style>
<path class="st0" d="M-193,284.1h-205.3c-20.3,0-36.7-16.4-36.7-36.7V65.6c0-20.3,16.4-36.7,36.7-36.7H-193
	c20.3,0,36.7,16.4,36.7,36.7v181.8C-156.3,267.7-172.8,284.1-193,284.1z"/>
<path class="st0" d="M352.9,375.5H51.7c-20.3,0-36.7-16.4-36.7-36.7V66.3C15,46,31.5,29.6,51.7,29.6h301.2
	c20.3,0,36.7,16.4,36.7,36.7v272.5C389.7,359.1,373.2,375.5,352.9,375.5z"/>
<g>
	<path class="st1" d="M-331.8,106.2c5.6-15.8,0.5-32.8-11.5-43.1c-2.9-2.4-6.1-4.5-9.8-6.1c-0.8-0.3-1.6-0.7-2.4-1
		c-8.3-3-17-3-24.9-0.5c-11.3,3.5-20.9,12.2-25.2,24.2c-1.4,4-2.2,8-2.3,12c-0.5,16.5,9.6,32.2,26,38.1
		C-361.5,137.2-339,126.6-331.8,106.2z M-378.6,120.7c-12.3-4.4-19.9-16.2-19.5-28.6c0.1-3,0.6-6,1.7-9c3.2-9,10.4-15.5,18.9-18.2
		c5.9-1.8,12.4-1.9,18.7,0.4c0.6,0.2,1.2,0.5,1.8,0.7c2.7,1.2,5.2,2.7,7.3,4.6c9,7.7,12.9,20.5,8.6,32.3
		C-346.5,118.2-363.3,126.1-378.6,120.7z"/>
</g>
<g>
	<path class="st2" d="M-377.4,64.9l-2.9-9.4c-11.3,3.5-20.9,12.2-25.2,24.2c-1.4,4-2.2,8-2.3,12l9.8,0.3c0.1-3,0.6-6,1.7-9
		C-393.1,74.1-385.9,67.6-377.4,64.9z"/>
</g>
<g>
	<path class="st3" d="M-356.9,66l3.9-9c-0.8-0.3-1.6-0.7-2.4-1c-8.3-3-17-3-24.9-0.5l2.9,9.4c5.9-1.8,12.4-1.9,18.7,0.4
		C-358.2,65.5-357.5,65.8-356.9,66z"/>
</g>
<g>
	<path class="st4" d="M-343.3,63.1c-2.9-2.4-6.1-4.5-9.8-6.1l-3.9,9c2.7,1.2,5.2,2.7,7.3,4.6L-343.3,63.1z"/>
</g>
<g>
	<rect x="-220.6" y="185.8" class="st1" width="13.6" height="46.6"/>
</g>
<g>
	<rect x="-240.8" y="198.9" class="st1" width="13.6" height="33.5"/>
</g>
<g>
	<rect x="-200.9" y="164.2" class="st1" width="13.6" height="68.2"/>
</g>
<g>
	<polygon class="st5" points="-189.5,130.1 -189.8,128.7 -225.7,134.5 -237.3,159.3 -276,162 -288.6,180.5 -318.2,179.7 
		-318.2,181.2 -287.8,182 -275.2,163.4 -236.3,160.8 -224.7,135.9 	"/>
</g>
<path class="st1" d="M-233.4,68h38.7c2.4,0,4.4-2,4.4-4.4l0,0c0-2.4-2-4.4-4.4-4.4h-38.7c-2.4,0-4.4,2-4.4,4.4l0,0
	C-237.8,66-235.8,68-233.4,68z"/>
<path class="st1" d="M-233.4,83.4h38.7c2.4,0,4.4-2,4.4-4.4l0,0c0-2.4-2-4.4-4.4-4.4h-38.7c-2.4,0-4.4,2-4.4,4.4l0,0
	C-237.8,81.5-235.8,83.4-233.4,83.4z"/>
<path class="st1" d="M-233.4,98.9h38.7c2.4,0,4.4-2,4.4-4.4l0,0c0-2.4-2-4.4-4.4-4.4h-38.7c-2.4,0-4.4,2-4.4,4.4l0,0
	C-237.8,96.9-235.8,98.9-233.4,98.9z"/>
<g>
	<polygon class="st6" points="-303.5,75.7 -325.6,75.7 -325.6,74.8 -303.8,74.8 -292.2,63.2 -277.9,63.2 -277.9,64 -291.8,64 	"/>
</g>
<g>
	<polygon class="st7" points="-282.5,114.3 -311,114.3 -320.2,105.1 -319.6,104.5 -310.6,113.5 -282.5,113.5 	"/>
</g>
<rect x="-290" y="68.8" class="st8" width="29.5" height="3.6"/>
<rect x="-299.1" y="105.7" class="st8" width="23.8" height="3.6"/>
<path class="st2" d="M-497.5,123.1c7.4-3.6,14.8,20.1,14.8,20.1c12.6,16.7,30.3-5.5,28.6,19.5c-3,43.7,50.3,13.7,25.7,59.4
	c-24.6,45.6,21.7,25.8,6.4,62.6c-15.3,36.8,4.5,80.7-18.5,62.6c0,0-20.3-44.4-41.1-58.2c-20.9-13.7,12.5-30,6-48.7
	c-9.5-27.1-32.4-26-15.9-55.2C-474.9,156.1-522.8,135.2-497.5,123.1z"/>
<g>
	<path class="st9" d="M-433.1,330.5c-10-7-21.6-55.9-22.3-85c-0.4-14.9-4.8-21.1-8.7-26.6c-3.7-5.2-6.9-9.8-5.1-20.2
		c3.6-19.9-5.8-28.4-5.9-28.5l1.1-1.2c0.4,0.4,10.2,9.2,6.5,30c-1.7,9.7,1.1,13.8,4.8,18.9c3.8,5.4,8.6,12.1,9,27.5
		c0.7,31.2,12.7,77.4,21.6,83.7L-433.1,330.5z"/>
</g>
<path class="st10" d="M-399.9,159.9c-10.4-3.6-8.2,16.5-12.6,31.3c-4.4,14.8-48.9,6.5-30.2,43.6c18.7,37.2-23.6,12.4-11,44.9
	c12.6,32.4,1.1,67.1,14.8,58.3c13.7-8.8,7.7-49.7,22-54.5c14.3-4.9,16.6-10.5,2.5-23.7c-14.1-13.2,37.1-26.3,24.4-52.9
	C-402.7,180.2-387.9,164-399.9,159.9z"/>
<g>
	<path class="st9" d="M-432.6,336.5c-1.3-5.5-12.5-54.4-2.1-60.3c9.2-5.2,9-25.5,7.5-44.6c-1.3-16.9,20.5-24.8,21.4-25.2l0.6,1.6
		c-0.2,0.1-21.5,7.8-20.3,23.5c1.5,19.6,1.6,40.5-8.4,46.1c-7.9,4.5-0.6,43.8,2.8,58.5L-432.6,336.5z"/>
</g>
<polygon class="st11" points="-408.9,319.1 -423.8,375.4 -457,375.4 -471.9,319.1 "/>
<g>
	<rect x="-362.8" y="245.8" class="st12" width="46.8" height="2.8"/>
</g>
<g>
	
		<rect x="-356.5" y="255.8" transform="matrix(-1 -1.224647e-16 1.224647e-16 -1 -708.9889 638.0522)" class="st13" width="4.1" height="126.4"/>
</g>
<g>
	<rect x="-323.3" y="245" class="st14" width="32.5" height="4"/>
</g>
<g>
	<rect x="-313.2" y="211.2" class="st15" width="12.3" height="37.4"/>
</g>
<g>
	<rect x="-379.6" y="248.7" class="st11" width="180.3" height="7.2"/>
</g>
<g>
	<path class="st16" d="M-414.2,205.2c0,0-2,27.7,3.4,31c3.4,2.1,16.9,9.1,16.5,10.4c-0.4,1.3-7.6,11.7-7.6,11.7
		s-25.9-17.1-26.8-22.5c-0.8-5.3,1.3-40.5,4.8-42.1c2.7-1.2,4.1-0.2,7.4,2.3C-411.7,199.4-414.2,205.2-414.2,205.2z"/>
</g>
<g>
	<g>
		<g>
			<path class="st17" d="M-382.3,365c0,0-0.8,5.6-0.9,6.4c-0.1,0.8-9-0.5-9-0.5l-0.7-6.7C-392.9,364.2-383.4,364.2-382.3,365z"/>
		</g>
	</g>
</g>
<g>
	<g>
		<g>
			<path class="st18" d="M-383.1,370.7c0,0,2.8,3.4,5.5,4.8c2.7,1.5,7,2.1,8.6,3.6c1.2,1.1,4.2,5.8-7.1,5.7
				c-11.3-0.1-16.7,0.7-17.9-1.1c-1.2-1.8,1.7-13.4,1.7-13.4S-389.6,371.3-383.1,370.7z"/>
		</g>
	</g>
</g>
<g>
	<g>
		<g>
			<path class="st17" d="M-325.5,365c0,0-0.8,5.6-0.9,6.4c-0.1,0.8-9-0.5-9-0.5l-0.7-6.7C-336.1,364.3-326.6,364.2-325.5,365z"/>
		</g>
	</g>
</g>
<g>
	<g>
		<g>
			<path class="st18" d="M-326.3,370.7c0,0,2.8,3.4,5.5,4.8c2.7,1.5,12.7,2.7,14.3,4.2c1.2,1.1,3.1,5.5-12.8,5.1
				c-11.3-0.3-16.7,0.7-17.9-1.1c-1.2-1.8,1.7-13.4,1.7-13.4S-332.9,371.4-326.3,370.7z"/>
		</g>
	</g>
</g>
<g>
	<g>
		<g>
			<path class="st19" d="M-410.9,268.3c0,0,32.2,5.5,39.5,6.6c7.3,1.1,46.8,11,51.7,14c3.9,2.4-2.1,59.6-3.5,81.4h-15.5l-1.1-65.5
				c-18.7,0.5-32-4.4-45.6-2.3c-13.6,2.1-24.9,5-33.5-6.6C-419,295.9-419.3,270.8-410.9,268.3z"/>
		</g>
	</g>
</g>
<g>
	<g>
		<g>
			<path class="st19" d="M-379.1,370.4l-15.2-0.9l-1.5-64.6c-8,0.2-10.8-0.3-17.3-1.1l-12.2-28.4c10.7,2.1,45.1,10.8,49.7,13.6
				C-371.7,291.3-377.7,348.5-379.1,370.4z"/>
		</g>
	</g>
</g>
<g>
	<g>
		<g>
			<path class="st20" d="M-396.1,147.5c0,0,11.8-3.3,16.3,5.9c4.5,9.2,2.5,26.6-3.5,28.2c-6,1.6-14.5-0.2-17-6
				c-2.5-5.7-4.4-13.8-3.9-19.1C-403.5,151.3-399.2,148.7-396.1,147.5z"/>
		</g>
	</g>
</g>
<g>
	<g>
		<g>
			<path class="st21" d="M-386.3,179.8c0,0-0.1,7,0.6,8.5c0.8,1.5-16.5,1.1-16.5,1.1s2.7-8.4,1.2-15.5
				C-402.5,166.8-386.3,179.8-386.3,179.8z"/>
		</g>
	</g>
</g>
<g>
	<g>
		<g>
			<path class="st22" d="M-401.9,171.2c0,0,0.9,1.9,5.4,1.6c4.5-0.3,10.3-5.7,12.2-6.2c1.9-0.5,2-1.6,2-1.6l1,1.8l1.9,0.3
				c0,0-1.3-5.4,1.6-7.3c2.9-1.9-1.3-17.2-15.8-13.5c0,0-11.1,2-11.2,8.2C-405,160.7-404.1,167.9-401.9,171.2z"/>
		</g>
	</g>
</g>
<g>
	<g>
		<g>
			<path class="st12" d="M-384.8,188c0,0,0-2.8-1.3-3.1c-1.3-0.3-13.5-2-15.1-1.3l-0.7,3.8C-401.9,187.3-398.9,189.2-384.8,188z"/>
		</g>
	</g>
</g>
<g>
	<g>
		<g>
			<path class="st23" d="M-381.2,163.8c-0.3-2.3-3-5-4.5-1.4c-1.5,3.6,1,8.9,2.7,8.6C-381.3,170.7-380.8,166.9-381.2,163.8z"/>
		</g>
	</g>
</g>
<g>
	<g>
		<g>
			<path class="st24" d="M-333.5,221.6C-333.5,221.6-333.5,221.6-333.5,221.6C-333.4,221.7-333.4,221.7-333.5,221.6z"/>
		</g>
	</g>
</g>
<g>
	<g>
		<g>
			<path class="st25" d="M-399.5,149.1c0,0-14.4-0.7-2.5,21.8L-399.5,149.1z"/>
		</g>
	</g>
</g>
<g>
	<g>
		<polygon class="st13" points="-431.6,378 -430.6,381 -385.3,367 -387.4,360.9 		"/>
	</g>
</g>
<g>
	<g>
		<rect x="-388.9" y="315.6" class="st15" width="5.1" height="49.2"/>
	</g>
</g>
<g>
	<g>
		<rect x="-401.5" y="313" class="st26" width="30.4" height="2.9"/>
	</g>
</g>
<g>
	<g>
		<polygon class="st13" points="-340.6,378 -341.6,381 -386.9,367 -384.9,360.5 		"/>
	</g>
</g>
<g>
	<g>
		<polygon class="st13" points="-372.5,380.7 -372.5,384.2 -386.9,367 -384.9,360.5 		"/>
	</g>
</g>
<g>
	<g>
		<path class="st18" d="M-336.3,382.2c0,2.3-1.9,4.2-4.2,4.2c-2.3,0-4.2-1.9-4.2-4.2c0-2.3,1.9-4.2,4.2-4.2
			C-338.2,378-336.3,379.9-336.3,382.2z"/>
	</g>
</g>
<g>
	<g>
		<path class="st18" d="M-372.1,382.2c0,2.3-1.9,4.2-4.2,4.2c-2.3,0-4.2-1.9-4.2-4.2c0-2.3,1.9-4.2,4.2-4.2
			C-374,378-372.1,379.9-372.1,382.2z"/>
	</g>
</g>
<g>
	<g>
		<path class="st18" d="M-427.4,382.2c0,2.3-1.9,4.2-4.2,4.2c-2.3,0-4.2-1.9-4.2-4.2c0-2.3,1.9-4.2,4.2-4.2
			C-429.3,378-427.4,379.9-427.4,382.2z"/>
	</g>
</g>
<g>
	<path class="st11" d="M-355.6,313h-60.9c-3,0-5.5-2.5-5.5-5.5l0,0c0-3,2.5-5.5,5.5-5.5h60.9c3,0,5.5,2.5,5.5,5.5l0,0
		C-350.1,310.5-352.6,313-355.6,313z"/>
</g>
<g>
	<rect x="-226.5" y="255.8" class="st13" width="4.1" height="126.4"/>
</g>
<g>
	<path class="st19" d="M-265.6,229.2h-83c-6.5,0-11.7-5.2-11.7-11.7v-51.6c0-6.5,5.2-11.7,11.7-11.7h83c6.5,0,11.7,5.2,11.7,11.7
		v51.6C-253.9,224-259.1,229.2-265.6,229.2z"/>
</g>
<g>
	<rect x="-356.1" y="158.2" class="st27" width="98.1" height="59.2"/>
</g>
<g>
	<path class="st9" d="M-262.4,223c0,1.7-1.8,3-4,3c-2.2,0-4-1.4-4-3c0-1.7,1.8-3.1,4-3.1C-264.2,220-262.4,221.3-262.4,223z"/>
</g>
<g>
	<path class="st13" d="M-285,248.7v-1.3c0,0-1.9-8.3-15.2-8.3c-13.3,0-13,9.6-13,9.6H-285z"/>
</g>
<g>
	<g>
		<path class="st20" d="M-313.4,240.3c0,0,2.9-0.2,3.9-0.9c1.1-0.6,7.4-4.9,8.9-4.2c1.5,0.7,11.4,3.7,11,5.2c-0.3,1.4-1.3,1.3-2,1.1
			c-0.7-0.3-7.9-1.8-8.5-1.5c0,0,7.1,2.6,7.1,4.4c0,1.9-1.5,2.3-2.1,3c-0.7,0.7-1.5,2.5-3.3,2.6c-1.8,0.1-10.7-3-12.5-3.1
			c-1.8-0.1-5.2,0.1-5.4-0.2C-316.5,246.5-313.4,240.3-313.4,240.3z"/>
	</g>
</g>
<g>
	<g>
		<g>
			<path class="st28" d="M-365.9,192c-9.2-1.6-18.9-3.9-18.9-3.9l-17.1-0.7c0,0-15.7,3.5-21.9,6.3c-0.6,0.3-0.6,14-2.2,17.6
				l5.1,10.8c0,0,3,21.5,3.6,31c0.3,4.4-0.8,42.3-0.8,42.3s1.5,0.8,13.2,2c11.7,1.3,40.9-0.5,41.1-1.8c0.2-1.4-5.7-51.4-5.9-54
				c-0.4-4,1.1-22.4,1.1-22.4c2.2,3,7.8,16.3,13.7,22.7c3.4,3.7,20.5,6,23.7,6.1c7,0.2,19.8,1.6,20.1,0.9c0.3-0.4,1.1-11.3,0.3-11.6
				c-0.7-0.2-24.4-1.6-30.5-4.8c-2.2-1.2-8.9-15.7-8.9-15.7S-360.8,194.3-365.9,192z"/>
		</g>
	</g>
</g>
<g>
	<path class="st11" d="M-411.8,294.3h-4.5c-12.4,0-22.5-10.1-22.5-22.5v-23.6c0-12.4,10.1-22.5,22.5-22.5h4.5
		c12.4,0,22.5,10.1,22.5,22.5v23.6C-389.3,284.2-399.3,294.3-411.8,294.3z"/>
</g>
<g>
	<path class="st15" d="M-398,310.3c-7.3,0-13.2-2.5-17.6-7.3c-9.9-10.9-8.1-30.2-8.1-31c0.1-1.5,1.5-2.6,3-2.5
		c1.5,0.2,2.6,1.5,2.5,3c0,0.2-1.6,17.7,6.7,26.8c3.3,3.7,7.8,5.5,13.5,5.5c1.5,0,2.8,1.2,2.8,2.8C-395.3,309-396.5,310.3-398,310.3
		z"/>
</g>
<g>
	<g>
		<g>
			<path class="st11" d="M-322,166.1h-25.6c-0.9,0-1.6-0.7-1.6-1.6v0c0-0.9,0.7-1.6,1.6-1.6h25.6c0.9,0,1.6,0.7,1.6,1.6v0
				C-320.4,165.4-321.1,166.1-322,166.1z"/>
		</g>
	</g>
</g>
<g>
	<g>
		<g>
			<path class="st11" d="M-322,172.8h-25.6c-0.9,0-1.6-0.7-1.6-1.6l0,0c0-0.9,0.7-1.6,1.6-1.6h25.6c0.9,0,1.6,0.7,1.6,1.6v0
				C-320.4,172.1-321.1,172.8-322,172.8z"/>
		</g>
	</g>
</g>
<g>
	<g>
		<g>
			<path class="st11" d="M-326.1,212.7h-17.4c-3.1,0-5.6-2.5-5.6-5.6V183c0-3.1,2.5-5.6,5.6-5.6h17.4c3.1,0,5.6,2.5,5.6,5.6v24.1
				C-320.4,210.2-322.9,212.7-326.1,212.7z"/>
		</g>
	</g>
</g>
<g>
	<g>
		<g>
			<path class="st11" d="M-272.4,212.7h-33.3c-4.9,0-8.9-4-8.9-8.9v-31.9c0-4.9,4-8.9,8.9-8.9h33.3c4.9,0,8.9,4,8.9,8.9v31.9
				C-263.5,208.7-267.5,212.7-272.4,212.7z"/>
		</g>
	</g>
</g>
<path class="st29" d="M197.6,112L197.6,112c0-10.6,6.6-19.2,14.7-19.2h2.2c5.5,0,53.7,5.7,53.7,12.8v12.8c0,7.1,6.2,12.8,0.8,12.8
	h-56.7C204.2,131.2,197.6,122.6,197.6,112z"/>
<path class="st30" d="M267.2,128.5h-54.9c-7,0-12.7-7.4-12.7-16.5c0-0.5,0-0.9,0-1.4c0.5-8.4,6-15.1,12.6-15.1h1.9
	c4.7,0,52.3,4.9,52.3,11v11C266.6,123.6,271.9,128.5,267.2,128.5z"/>
<path class="st30" d="M266.6,106.5v4.1h-66.8c0.5-8.4,6-15.1,12.6-15.1h1.9C218.9,95.6,266.6,100.5,266.6,106.5z"/>
<polygon class="st31" points="261.5,62.2 261.5,57.4 245.4,51.4 246.6,64.3 255.7,66.3 "/>
<polygon class="st31" points="41.6,57.4 41.6,62.2 47.9,63.2 48.6,54.8 46.4,54.2 "/>
<path class="st32" d="M146.5,38.7L146.5,38.7c0,1-0.8,1.8-1.8,1.8H72.1c-1,0-1.8-0.8-1.8-1.8l0,0c0-1,0.8-1.8,1.8-1.8h72.6
	C145.8,37,146.5,37.8,146.5,38.7z"/>
<path class="st31" d="M128.6,20L46,51c-3.5,1.3-5.3,5.2-4,8.7c0.7,1.8,2.1,3.3,4,4l103.2,38.7c1.5,0.6,3.2,0.6,4.8,0l103.2-38.7
	c3.5-1.3,5.3-5.2,4-8.7c-0.7-1.8-2.1-3.3-4-4l-82.6-31C159.7,14.5,143.4,14.5,128.6,20z"/>
<path class="st33" d="M128.6,24.8L46,55.8c-3.5,1.3-5.3,5.2-3.9,8.7c0.7,1.8,2.1,3.3,3.9,3.9l103.2,38.7c1.5,0.6,3.2,0.6,4.8,0
	l103.2-38.7c3.5-1.3,5.3-5.2,3.9-8.7c-0.7-1.8-2.1-3.3-3.9-3.9l-82.6-31C159.7,19.3,143.4,19.3,128.6,24.8z"/>
<path class="st33" d="M201.8,65.9L201.8,65.9c-32.9,9-67.6,9-100.4,0l0,0v38.8l0,0c33.1,7.2,67.3,7.2,100.4,0l0,0V65.9z"/>
<path class="st31" d="M201.8,104.7L201.8,104.7c-32.9-9-67.6-9-100.4,0l0,0V65.9l0,0c33.1-7.2,67.3-7.2,100.4,0l0,0V104.7z"/>
<path class="st28" d="M201.8,95.6v3.3c-32.9-9-67.5-9-100.4,0v-3.3C134.2,86.5,168.9,86.5,201.8,95.6z"/>
<path class="st28" d="M72.1,37L72.1,37c1,0,1.8,0.8,1.8,1.8v72.6c0,1-0.8,1.8-1.8,1.8l0,0c-1,0-1.8-0.8-1.8-1.8V38.7
	C70.4,37.8,71.2,37,72.1,37z"/>
<circle class="st28" cx="72.1" cy="113.1" r="7.1"/>
<path class="st34" d="M296.2,348.3H113c-7-5.3-7-12.2,0-17.5h183.3L296.2,348.3z"/>
<path class="st3" d="M323.4,376.5H157.3c-6.1,0-11.9-1.9-16-5.3L113,348.3h183.3l29.6,24C327.8,374,326.3,376.5,323.4,376.5z"/>
<path class="st9" d="M319.1,369.7l-27.4-24h4.5v-11.6H118.1c-6.2,3.2,0,11.6,0,11.6l27.7,22.5c3.7,2.8,8.2,4.3,12.9,4.2h158.8
	C319.3,372.4,320.3,370.8,319.1,369.7z"/>
<path class="st3" d="M323.4,359.1H157.3c-6.1,0-11.9-1.9-16-5.3L113,330.8h183.3l29.6,24C327.8,356.5,326.3,359.1,323.4,359.1z"/>
<path class="st9" d="M322.2,359.1l-2.7,3.2c-1.8,2-1.8,4.9,0,6.9l0,0c1.1,1.4-0.2,3.1-2.3,3l-37.2-1.6V364l27.4-5L322.2,359.1z"/>
<path class="st35" d="M317.2,321H133.9c-7-5.3-7-12.2,0-17.5h183.3V321z"/>
<path class="st2" d="M344.4,349.3H178.3c-6.1,0-11.9-1.9-16-5.3L134,321h183.3l29.6,24.1C348.8,346.7,347.3,349.3,344.4,349.3z"/>
<path class="st9" d="M340.1,342.4l-27.4-24h4.5v-11.5H139.1c-6.2,3.2,0,11.6,0,11.6l27.7,22.5c3.7,2.8,8.2,4.3,12.9,4.2h158.8
	C340.3,345.1,341.3,343.5,340.1,342.4z"/>
<path class="st2" d="M344.4,331.8H178.3c-6.1,0-11.9-1.9-16-5.3L134,303.5h183.3l29.6,24C348.8,329.2,347.3,331.8,344.4,331.8z"/>
<path class="st9" d="M343.2,331.8l-2.7,3.2c-1.8,2-1.8,4.9,0,6.9l0,0c1.1,1.4-0.2,3.1-2.3,3l-37.2-1.6v-6.6l27.4-5L343.2,331.8z"/>
<path class="st1" d="M305.1,298.2H121.8c-7-5.3-7-12.2,0-17.5h183.3V298.2z"/>
<path class="st1" d="M332.3,326.4H166.1c-6.1,0-11.9-1.9-16-5.3l-28.3-22.9h183.3l29.6,24C336.7,323.8,335.2,326.4,332.3,326.4z"/>
<path class="st9" d="M328,319.6l-27.4-24h4.5V284H126.9c-6.2,3.2,0,11.6,0,11.6l27.7,22.5c3.7,2.8,8.2,4.3,12.9,4.2h158.8
	C328.2,322.3,329.2,320.6,328,319.6z"/>
<path class="st1" d="M332.3,308.9H166.1c-6.1,0-11.9-1.9-16-5.3l-28.3-22.9h183.3l29.6,24C336.7,306.3,335.2,308.9,332.3,308.9z"/>
<path class="st9" d="M331.1,308.9l-2.7,3.2c-1.8,2-1.8,4.9,0,6.9l0,0c1.1,1.4-0.2,3.1-2.3,3l-37.2-1.6v-6.6l27.4-5L331.1,308.9z"/>
<path class="st32" d="M134.4,293.3H131c-2.3,0-4.5,1-6,2.8l-0.8,1l0.2-3l-3.3,0.5l1.1-1.2c1.5-1.6,3.6-2.6,5.8-2.6h2.7L134.4,293.3z
	"/>
<path class="st11" d="M98.1,104.7h252.5c4.8,0,8.7,3.9,8.7,8.7v150.2c0,4.8-3.9,8.7-8.7,8.7H98.1c-4.8,0-8.7-3.9-8.7-8.7V113.4
	C89.4,108.6,93.3,104.7,98.1,104.7z"/>
<path class="st9" d="M349.8,118.9v139.3c0,2-1.6,3.6-3.6,3.6H102.5h-0.3l0,0c-1.9-0.2-3.3-1.7-3.3-3.6V118.9c0-2,1.6-3.6,3.6-3.7
	c0,0,0,0,0,0h243.7C348.2,115.3,349.8,116.9,349.8,118.9z"/>
<rect x="209" y="272.4" class="st15" width="30.7" height="10.8"/>
<path class="st13" d="M263.2,287.7c-2.1-2.9-5.4-4.6-9-4.6h-59.6c-3.6,0-6.9,1.7-9,4.6l-4.5,6.2h86.7L263.2,287.7z"/>
<path class="st29" d="M347.2,92.9H213.5c0,0,13.9,10.1,13.9,21.8v125.4c0,10,8.1,18.1,18.1,18.1h96.2c10,0,18.1-8.1,18.1-18.1V105.5
	C359.8,98.5,354.1,92.9,347.2,92.9z"/>
<rect x="250.3" y="121" class="st33" width="17.2" height="2.1"/>
<rect x="250.3" y="128.7" class="st33" width="41.8" height="2.1"/>
<rect x="250.3" y="151.2" class="st33" width="98.1" height="2.1"/>
<rect x="250.3" y="161.6" class="st33" width="98.1" height="2.1"/>
<rect x="250.3" y="171.9" class="st33" width="98.1" height="2.1"/>
<rect x="250.3" y="182.3" class="st33" width="98.1" height="2.1"/>
<rect x="250.3" y="192.7" class="st33" width="98.1" height="2.1"/>
<rect x="250.3" y="203.1" class="st33" width="66.3" height="2.1"/>
<circle class="st28" cx="342.6" cy="234" r="24.1"/>
<polygon class="st28" points="351.7,236.9 352,236.2 351.3,235.9 348.8,229.8 342.6,232.3 336.4,229.8 333.9,235.9 333.2,236.2 
	333.5,236.9 317.6,275.8 329,270.1 333.1,282.2 342.6,259.1 352.1,282.2 356.2,270.1 367.6,275.8 "/>
<path class="st9" d="M342.6,254.4c-11.3,0-20.4-9.2-20.4-20.4c0-11.3,9.2-20.4,20.4-20.4c11.3,0,20.4,9.2,20.4,20.4
	C363,245.3,353.9,254.4,342.6,254.4z M342.6,215.4c-10.3,0-18.6,8.3-18.6,18.6c0,10.3,8.3,18.6,18.6,18.6c10.3,0,18.6-8.3,18.6-18.6
	C361.2,223.7,352.9,215.4,342.6,215.4z"/>
<path class="st36" d="M300.3,290.2c0,6.9-15.8,12.4-35.4,12.4c-3.3,0-6.6-0.1-9.9-0.5c-5.7-0.5-11.2-1.7-16.5-3.7
	c-5.6-2.2-8.9-5.1-8.9-8.3c0-6.9,15.8-12.4,35.4-12.4c6.9-0.1,13.7,0.7,20.4,2.3c2.1,0.5,4.2,1.2,6.2,2
	C296.9,284.2,300.3,287.1,300.3,290.2z"/>
<path class="st36" d="M300.3,295c0,6.9-15.8,12.4-35.4,12.4c-3.3,0-6.6-0.2-9.9-0.5c-5.7-0.5-11.2-1.7-16.5-3.7
	c-5.6-2.2-8.9-5.1-8.9-8.3c0-6.9,15.8-12.4,35.4-12.4c6.9-0.1,13.7,0.7,20.4,2.3c2.1,0.5,4.2,1.2,6.2,2
	C296.9,289,300.3,291.9,300.3,295z"/>
<ellipse class="st37" cx="264.9" cy="290.2" rx="26.7" ry="9.4"/>
<polygon class="st36" points="229.5,290.2 229.5,295 232.5,297.7 234,291.1 231.9,289.3 "/>
<polygon class="st36" points="300.3,295 300.3,290.2 298.1,290.2 296.7,293.5 296.7,295.7 "/>
<path class="st38" d="M291.4,282c-1.7,0.7-3.6,1.6-5.5,2.5c-8.9,4.3-19.3,10.5-26.5,14.9c-1.7,1-3.1,2-4.4,2.8
	c-5.7-0.5-11.2-1.7-16.5-3.7c1.3-1.2,2.7-2.2,4.3-3.1c9-5.5,24.4-10.4,35.2-13.4c2.9-0.8,5.5-1.5,7.4-2
	C287.4,280.6,289.4,281.2,291.4,282z"/>
<path class="st36" d="M326.7,295.7c-1.8,6.6-18.6,7.7-37.4,2.4c-3.2-0.9-6.3-1.9-9.4-3.1c-5.3-2-10.3-4.7-14.9-8
	c-4.8-3.6-7.2-7.3-6.4-10.4c1.9-6.6,18.6-7.7,37.4-2.4c6.6,1.8,13,4.4,19,7.7c1.9,1.1,3.7,2.2,5.5,3.5
	C325.1,289,327.5,292.7,326.7,295.7z"/>
<path class="st36" d="M325.4,300.4c-1.9,6.6-18.6,7.7-37.4,2.4c-3.2-0.9-6.3-1.9-9.4-3.1c-5.3-2-10.3-4.7-14.9-8
	c-4.8-3.6-7.2-7.3-6.4-10.4c1.8-6.6,18.6-7.7,37.4-2.4c6.6,1.8,13,4.4,19,7.7c1.9,1.1,3.7,2.2,5.5,3.5
	C323.8,293.7,326.2,297.4,325.4,300.4z"/>
<ellipse transform="matrix(0.2693 -0.9631 0.9631 0.2693 -61.8492 490.8875)" class="st37" cx="292.6" cy="286.2" rx="9.4" ry="26.7"/>
<polygon class="st36" points="258.5,276.7 257.2,281.3 259.4,284.7 262.6,278.8 261.1,276.5 "/>
<polygon class="st36" points="325.4,300.4 326.7,295.7 324.6,295.2 322.3,297.9 321.7,300 "/>
<path class="st38" d="M320.4,285.4c-1.9,0.2-3.9,0.5-6,0.9c-9.7,1.7-21.4,4.9-29.6,7.2c-1.9,0.5-3.6,1-5,1.5c-5.3-2-10.3-4.7-14.9-8
	c1.6-0.7,3.2-1.4,4.9-1.8c10.2-2.9,26.3-3.4,37.4-3.4c3,0,5.6,0,7.7,0.1C316.8,283,318.6,284.1,320.4,285.4z"/>
<path class="st36" d="M146.7,353.3c0,7.9-18.1,14.2-40.6,14.2c-3.8,0-7.6-0.2-11.3-0.6c-6.5-0.6-12.8-2-18.9-4.2
	c-6.4-2.5-10.2-5.8-10.2-9.5c0-7.9,18.1-14.3,40.6-14.3c7.9-0.1,15.7,0.8,23.3,2.6c2.4,0.6,4.8,1.3,7.1,2.2
	C142.9,346.4,146.7,349.7,146.7,353.3z"/>
<path class="st36" d="M146.7,358.8c0,7.9-18.1,14.2-40.6,14.2c-3.8,0-7.6-0.2-11.3-0.6c-6.5-0.6-12.8-2-18.9-4.2
	c-6.4-2.5-10.2-5.8-10.2-9.5c0-7.9,18.1-14.3,40.6-14.3c7.9-0.1,15.7,0.8,23.3,2.6c2.4,0.6,4.8,1.3,7.1,2.2
	C142.9,351.9,146.7,355.2,146.7,358.8z"/>
<ellipse class="st37" cx="106.2" cy="353.3" rx="30.5" ry="10.7"/>
<polygon class="st36" points="65.7,353.3 65.7,358.8 69.2,361.8 70.9,354.3 68.5,352.3 "/>
<polygon class="st36" points="146.7,358.8 146.7,353.3 144.3,353.3 142.6,357 142.6,359.5 "/>
<path class="st38" d="M136.6,343.9c-2,0.8-4.1,1.8-6.3,2.8c-10.2,4.9-22.1,12-30.4,17.1c-1.9,1.2-3.6,2.3-5.1,3.2
	c-6.5-0.6-12.8-2-18.9-4.2c1.5-1.3,3.1-2.5,4.9-3.5c10.4-6.3,28-11.9,40.3-15.3c3.3-0.9,6.2-1.7,8.5-2.3
	C131.9,342.2,134.3,343,136.6,343.9z"/>
<path class="st36" d="M135.4,336.6c0,7.9-18.1,14.3-40.6,14.3c-3.8,0-7.6-0.2-11.4-0.6c-6.5-0.6-12.8-2-18.9-4.2
	c-6.4-2.5-10.2-5.8-10.2-9.5c0-7.9,18.1-14.2,40.6-14.2c7.9-0.1,15.7,0.8,23.3,2.6c2.4,0.6,4.8,1.3,7.1,2.2
	C131.5,329.7,135.4,333,135.4,336.6z"/>
<path class="st36" d="M135.4,342.1c0,7.9-18.1,14.3-40.6,14.3c-3.8,0-7.6-0.2-11.4-0.6c-6.5-0.6-12.8-2-18.9-4.2
	c-6.4-2.5-10.2-5.8-10.2-9.5c0-7.9,18.1-14.2,40.6-14.2c7.9-0.1,15.7,0.8,23.3,2.6c2.4,0.6,4.8,1.3,7.1,2.2
	C131.5,335.2,135.4,338.5,135.4,342.1z"/>
<ellipse class="st37" cx="94.8" cy="336.6" rx="30.5" ry="10.7"/>
<polygon class="st36" points="54.3,336.6 54.3,342.1 57.8,345.1 59.5,337.6 57.1,335.6 "/>
<polygon class="st36" points="135.4,342.1 135.4,336.6 132.9,336.6 131.3,340.4 131.3,342.9 "/>
<path class="st38" d="M125.2,327.2c-2,0.8-4.1,1.8-6.3,2.8c-10.2,4.9-22.1,12-30.4,17.1c-1.9,1.2-3.6,2.3-5.1,3.2
	c-6.5-0.6-12.8-2-18.9-4.2c1.5-1.3,3.1-2.5,4.9-3.5c10.3-6.3,28-11.9,40.3-15.3c3.3-0.9,6.2-1.7,8.5-2.3
	C120.6,325.5,122.9,326.3,125.2,327.2z"/>
<path class="st36" d="M141.1,324.9c0,7.9-18.1,14.3-40.6,14.3c-3.8,0-7.6-0.2-11.4-0.6c-6.5-0.6-12.8-2-18.9-4.2
	c-6.4-2.5-10.2-5.8-10.2-9.5c0-7.9,18.1-14.3,40.6-14.3c7.9-0.1,15.7,0.8,23.3,2.6c2.4,0.6,4.8,1.3,7.1,2.2
	C137.3,318,141.1,321.3,141.1,324.9z"/>
<path class="st36" d="M141.1,330.5c0,7.9-18.1,14.3-40.6,14.3c-3.8,0-7.6-0.2-11.4-0.6c-6.5-0.6-12.8-2-18.9-4.2
	c-6.4-2.5-10.2-5.8-10.2-9.5c0-7.9,18.1-14.3,40.6-14.3c7.9-0.1,15.7,0.8,23.3,2.6c2.4,0.6,4.8,1.3,7.1,2.2
	C137.3,323.6,141.1,326.9,141.1,330.5z"/>
<ellipse class="st37" cx="100.6" cy="324.9" rx="30.5" ry="10.7"/>
<polygon class="st36" points="60.1,324.9 60.1,330.5 63.5,333.5 65.3,326 62.9,323.9 "/>
<polygon class="st36" points="141.1,330.5 141.1,324.9 138.6,324.9 137,328.7 137,331.2 "/>
<path class="st38" d="M131,315.5c-2,0.8-4.1,1.8-6.3,2.8c-10.2,4.9-22.1,12-30.4,17.1c-1.9,1.2-3.6,2.3-5.1,3.2
	c-6.5-0.6-12.8-2-18.9-4.2c1.5-1.3,3.1-2.5,4.9-3.5c10.3-6.3,28-11.9,40.3-15.3c3.3-0.9,6.2-1.7,8.5-2.3
	C126.3,313.9,128.7,314.6,131,315.5z"/>
<path class="st36" d="M141.1,308.9c0,7.9-18.1,14.3-40.6,14.3c-3.8,0-7.6-0.2-11.4-0.6c-6.5-0.6-12.8-2-18.9-4.2
	c-6.4-2.5-10.2-5.8-10.2-9.5c0-7.9,18.1-14.2,40.6-14.2c7.9-0.1,15.7,0.8,23.3,2.6c2.4,0.6,4.8,1.3,7.1,2.2
	C137.3,302,141.1,305.3,141.1,308.9z"/>
<path class="st36" d="M141.1,314.4c0,7.9-18.1,14.3-40.6,14.3c-3.8,0-7.6-0.2-11.4-0.6c-6.5-0.6-12.8-2-18.9-4.2
	c-6.4-2.5-10.2-5.8-10.2-9.5c0-7.9,18.1-14.2,40.6-14.2c7.9-0.1,15.7,0.8,23.3,2.6c2.4,0.6,4.8,1.3,7.1,2.2
	C137.3,307.5,141.1,310.8,141.1,314.4z"/>
<ellipse class="st37" cx="100.6" cy="308.9" rx="30.5" ry="10.7"/>
<polygon class="st36" points="60.1,308.9 60.1,314.4 63.5,317.4 65.3,309.9 62.9,307.9 "/>
<polygon class="st36" points="141.1,314.4 141.1,308.9 138.6,308.9 137,312.7 137,315.2 "/>
<path class="st36" d="M192,352.4c0,22.4-18.1,40.6-40.5,40.6c-22.4,0-40.6-18.1-40.6-40.5c0-22.4,18.1-40.6,40.5-40.6
	c11.7,0,22.8,5,30.5,13.7C188.4,333,192,342.5,192,352.4z"/>
<ellipse transform="matrix(0.1602 -0.9871 0.9871 0.1602 -220.6332 445.447)" class="st37" cx="151.5" cy="352.4" rx="30.5" ry="30.5"/>
</svg>
